<svg height="512pt" viewBox="0 -54 512.00001 512" width="512pt" xmlns="http://www.w3.org/2000/svg"><path d="m417.847656 202.269531c2.519532 7.632813 3.6875 15.882813 3.207032 24.464844-1.878907 33.769531-30.390626 61.394531-64.199219 62.273437-37.289063.96875-67.824219-28.96875-67.824219-66.039062 0-2.136719.121094-4.238281.320312-6.320312 1.859376-26.953126 15.429688-50.640626 35.707032-66.027344 3.296875-2.5 3.980468-7.195313 1.8125-10.71875l-70.871094-115.128906-70.871094 115.128906c-2.167968 3.523437-1.484375 8.21875 1.8125 10.71875 20.277344 15.386718 33.847656 39.070312 35.707032 66.023437.199218 2.082031.320312 4.1875.320312 6.320313 0 37.070312-30.535156 67.011718-67.824219 66.042968-33.808593-.878906-62.320312-28.507812-64.199219-62.273437-.480468-8.621094.699219-16.902344 3.238282-24.5625.980468-2.960937.410156-6.199219-1.761719-8.433594l-75.90625-78.125 24.773437 256h429.421876l24.773437-256-75.835937 78.050781c-2.214844 2.28125-2.796876 5.585938-1.800782 8.605469zm0 0" fill="#ffd064"/><path d="m156.902344 289.03125c-36.484375 0-66.0625-29.578125-66.0625-66.0625 0-7.257812 1.171875-14.238281 3.335937-20.769531.984375-2.972657.410157-6.234375-1.773437-8.480469l-75.886719-78.105469 24.773437 256h115.613282zm0 0" fill="#ffc250"/><g fill="#ffe07d"><path d="m495.484375 115.613281-75.835937 78.050781c-2.132813 2.195313-2.875 5.398438-1.902344 8.300782 2.589844 7.71875 3.792968 16.070312 3.3125 24.769531-1.882813 33.769531-30.394532 61.398437-64.203125 62.273437-37.289063.96875-67.824219-28.96875-67.824219-66.039062 0-2.136719.121094-4.242188.320312-6.324219 1.863282-26.953125 15.433594-50.636719 35.707032-66.023437 3.296875-2.5 3.984375-7.195313 1.8125-10.71875l-70.871094-115.128906-70.871094 115.128906c-2.167968 3.523437-1.484375 8.21875 1.8125 10.71875 20.277344 15.386718 33.847656 39.074218 35.707032 66.027344.199218 2.082031.320312 4.1875.320312 6.320312 0 37.070312-30.535156 67.011719-67.824219 66.042969-33.808593-.878907-62.320312-28.507813-64.199219-62.273438-.480468-8.621093.699219-16.902343 3.238282-24.566406.980468-2.957031.410156-6.195313-1.761719-8.429687l-75.90625-78.128907 5.09375 52.648438 34.101563 35.09375c2.109374 2.171875 3.09375 5.179687 2.746093 8.1875-.335937 2.902343-.539062 5.828125-.617187 8.773437-1.382813 52.910156 39.558594 98.039063 92.371094 101.527344 44.074218 2.910156 82.566406-23.1875 98.265624-61.039062 1.261719-3.039063 4.273438-4.980469 7.5625-4.980469 3.292969 0 6.300782 1.941406 7.566407 4.980469 12.652343 30.386718 40.054687 53.878906 73.894531 59.734374 62.363281 10.792969 116.691406-37.164062 116.691406-97.570312 0-3.84375-.214844-7.65625-.652344-11.433594-.34375-3.003906.640626-6.007812 2.75-8.179687l34.097657-35.097657zm-239.484375 70.207031c-3.460938 0-6.511719-2.1875-7.703125-5.4375-4.816406-13.089843-11.808594-25.308593-20.65625-36.085937-2.1875-2.664063-2.488281-6.398437-.683594-9.332031l23.933594-38.878906c2.34375-3.808594 7.875-3.808594 10.21875 0l23.933594 38.878906c1.808593 2.933594 1.503906 6.667968-.683594 9.332031-8.847656 10.777344-15.839844 22.996094-20.65625 36.085937-1.191406 3.25-4.242187 5.4375-7.703125 5.4375zm0 0"/><path d="m478.96875 404.644531h-445.9375c-4.558594 0-8.257812-3.695312-8.257812-8.257812v-16.515625c0-4.5625 3.699218-8.257813 8.257812-8.257813h445.9375c4.558594 0 8.257812 3.695313 8.257812 8.257813v16.515625c0 4.558593-3.699218 8.257812-8.257812 8.257812zm0 0"/><path d="m272.515625 16.515625c0 9.121094-7.394531 16.515625-16.515625 16.515625s-16.515625-7.394531-16.515625-16.515625 7.394531-16.515625 16.515625-16.515625 16.515625 7.394531 16.515625 16.515625zm0 0"/></g><path d="m264.257812 24.773438c-9.121093 0-16.515624-7.394532-16.515624-16.515626 0-2.417968.523437-4.726562 1.460937-6.796874-5.734375 2.589843-9.71875 8.355468-9.71875 15.054687 0 9.121094 7.394531 16.515625 16.515625 16.515625 6.699219 0 12.464844-3.984375 15.054688-9.71875-2.070313.933594-4.375 1.460938-6.796876 1.460938zm0 0" fill="#ffd064"/><path d="m512 115.613281c0 9.121094-7.394531 16.515625-16.515625 16.515625s-16.515625-7.394531-16.515625-16.515625c0-9.121093 7.394531-16.515625 16.515625-16.515625s16.515625 7.394532 16.515625 16.515625zm0 0" fill="#ffe07d"/><path d="m503.742188 123.871094c-9.121094 0-16.515626-7.394532-16.515626-16.515625 0-2.421875.527344-4.726563 1.460938-6.796875-5.734375 2.589844-9.71875 8.351562-9.71875 15.054687 0 9.121094 7.394531 16.515625 16.515625 16.515625 6.699219 0 12.460937-3.988281 15.050781-9.722656-2.070312.933594-4.375 1.464844-6.792968 1.464844zm0 0" fill="#ffd064"/><path d="m35.140625 308.066406 6.148437 63.546875h115.613282c-50.324219 0-94.855469-25.167969-121.761719-63.546875zm0 0" fill="#ffa95f"/><path d="m355.097656 371.613281h115.613282l6.148437-63.550781c-26.90625 38.382812-71.4375 63.550781-121.761719 63.550781zm0 0" fill="#ffc250"/><path d="m156.902344 371.613281h198.195312c-35.535156 0-68.199218-12.535156-93.796875-33.414062-3.121093-2.542969-7.480469-2.542969-10.601562 0-25.597657 20.878906-58.261719 33.414062-93.796875 33.414062zm0 0" fill="#ffc250"/><path d="m90.839844 222.96875c0-7.257812 1.171875-14.238281 3.335937-20.769531.984375-2.972657.410157-6.234375-1.773437-8.480469l-75.886719-78.105469 5.09375 52.644531 37.5 38.597657c-.867187 5.292969-1.304687 10.671875-1.304687 16.113281 0 54.640625 44.457031 99.09375 99.097656 99.09375v-33.03125c-36.484375 0-66.0625-29.578125-66.0625-66.0625zm0 0" fill="#ffd064"/><path d="m33.03125 115.613281c0 9.121094-7.394531 16.515625-16.515625 16.515625s-16.515625-7.394531-16.515625-16.515625c0-9.121093 7.394531-16.515625 16.515625-16.515625s16.515625 7.394532 16.515625 16.515625zm0 0" fill="#ffe07d"/><path d="m24.773438 123.871094c-9.121094 0-16.515626-7.394532-16.515626-16.515625 0-2.421875.527344-4.726563 1.460938-6.796875-5.734375 2.589844-9.71875 8.351562-9.71875 15.054687 0 9.121094 7.394531 16.515625 16.515625 16.515625 6.703125 0 12.464844-3.984375 15.054687-9.71875-2.070312.933594-4.375 1.460938-6.796874 1.460938zm0 0" fill="#ffd064"/><path d="m156.902344 371.613281h-123.871094c-4.558594 0-8.257812 3.695313-8.257812 8.257813v16.515625c0 4.558593 3.699218 8.257812 8.257812 8.257812h445.9375c4.558594 0 8.257812-3.699219 8.257812-8.257812v-8.257813h-313.808593c-9.121094 0-16.515625-7.394531-16.515625-16.515625zm0 0" fill="#ffd064"/></svg>